# xmcd
#
# Track frame offsets: 
#        151
#        16261
#        33153
#        49914
#        65939
#        81456
#        96498
#        115481
#        130689
#        147681
#        165220
#        181494
#        196689
#        211509
#        231289
#        245512
#
# Disc length: 3470 seconds
#
# Revision: 1
# Processed by: cddbd v1.5.2PL0 Copyright (c) Steve Scherf et al.
# Submitted via: ExactAudioCopy v0.99pb4
#
DISCID=e20d8c10
DTITLE=Various Artist - 江蕙懷念老歌2
DYEAR=1900
DGENRE=Country
TTITLE0=鴛鴦酒杯
TTITLE1=心事誰人知
TTITLE2=夜半路燈
TTITLE3=人客的要求
TTITLE4=月娘半屏圓
TTITLE5=行船人的純情曲
TTITLE6=酒矸通賣嘸
TTITLE7=心情
TTITLE8=哀愁風雨橋
TTITLE9=相思雨
TTITLE10=何時再相會
TTITLE11=可愛的馬
TTITLE12=重逢高雄港
TTITLE13=新娘悲歌
TTITLE14=給無良心的人
TTITLE15=離別的公共電話
EXTD=
EXTT0=
EXTT1=
EXTT2=
EXTT3=
EXTT4=
EXTT5=
EXTT6=
EXTT7=
EXTT8=
EXTT9=
EXTT10=
EXTT11=
EXTT12=
EXTT13=
EXTT14=
EXTT15=
PLAYORDER=
